<svg xmlns="http://www.w3.org/2000/svg" width="95.01" height="92.52" viewBox="0 0 95.01 92.52"><title>design-26-logo</title><g id="a74837b7-ab1e-44a2-8063-7f52ec3aabaf" data-name="Layer 2"><g id="a47c648a-a70f-48ae-8e29-07333b89e9aa" data-name="Layer 1"><path d="M93.58,38.27c-1,7-4.07,12-9.23,14.92-8.45,4.87-20.57,3-29.09-.43-1.85-.74-3.81-1.58-5.84-2.45-3.46-1.48-7.12-3-10.85-4.38,3.48-5.56,6.16-9.87,7.17-11.6h0A47.38,47.38,0,0,0,57.51,20.8c.16-.28,1.71-3,3.29-6.46A28.1,28.1,0,0,1,83.64,16.5C91.31,21,94.93,29,93.58,38.27ZM14.51,81.43A19.24,19.24,0,0,1,4,72.93,18.63,18.63,0,0,1,5.34,51.27C13.12,41.88,24,42.53,34.7,45.86,28.51,56.71,20.11,71.44,14.51,81.43Zm35.83-64.7C55.78,7.13,60.62,2.39,62,2.27c.47,1-.44,5.26-3.44,11.71a29.35,29.35,0,0,0-6.4,3.59.6.6,0,0,0-.11.82.57.57,0,0,0,.38.22.58.58,0,0,0,.42-.11,27.7,27.7,0,0,1,4.91-2.93c-.65,1.3-1.37,2.7-2.2,4.09A45.51,45.51,0,0,1,44.63,32.27a53.9,53.9,0,0,1,5.71-15.54ZM84.25,15.5a29.1,29.1,0,0,0-22.74-2.56C63.72,7.77,65.65,1.71,63.1.27,58.51-2.32,48.75,14.86,48.33,15.59a55.36,55.36,0,0,0-6.14,17.12c-1.16,2-3.71,6.49-6.91,12.09-11.14-3.53-22.54-4.28-30.83,5.7a20,20,0,0,0-1.52,23,20.28,20.28,0,0,0,11,9c-3.39,6-5.64,10-5.58,10.07l.91-.18,6-9.48h0a24.46,24.46,0,0,0,6.31.83,28.94,28.94,0,0,0,5.64-.58A.58.58,0,0,0,27,82a24.92,24.92,0,0,1-11.07-.14C22.1,72.07,31.32,57.51,38,46.91c3.77,1.36,7.55,3,11,4.46,2.06.88,4,1.71,5.86,2.46,11.37,4.54,22.61,4.67,30.09.35,5.44-3.14,8.74-8.43,9.8-15.73,1.42-9.79-2.4-18.18-10.47-23Z" fill="#002e96"/></g></g></svg>