<?xml version="1.0" encoding="UTF-8"?>
<svg viewBox="0 0 828 584" xmlns="http://www.w3.org/2000/svg" xmlns:xlink="http://www.w3.org/1999/xlink">
<defs>
<linearGradient id="b" x1="99.983%" x2=".019%" y1="50%" y2="50%">
<stop stop-color="gray" stop-opacity=".25" offset="0"/>
<stop stop-color="gray" stop-opacity=".12" offset=".54"/>
<stop stop-color="gray" stop-opacity=".1" offset="1"/>
</linearGradient>
<path id="a" d="m707.64 336.85c0.34806-4.12 3.3364-7.5573 7.4164-8.5307 1.5967-0.35269 3.3277-0.30861 4.7527-1.0875 2.4473-1.3446 3.1859-4.6217 5.5362-6.128 2.3503-1.5063 5.6854-0.66865 7.7297 1.2344 2.0444 1.9031 3.0814 4.6144 3.9171 7.2669 1.2475 3.5866 1.9246 7.3415 2.007 11.132 0.031119 0.69331-0.080552 1.3856-0.32829 2.0353-0.44242 0.75838-1.0011 1.4449-1.6564 2.0353-1.7716 1.958-2.5889 4.579-2.2383 7.1788 0.21203 2.42-0.012788 4.858-0.66404 7.2008-1.4922 6.4807-2.9845 12.954-4.1857 19.494-0.28186 1.2036-0.37496 2.4426-0.27606 3.6739 0.2313 1.7708 1.2236 3.4461 1.0073 5.2169-0.2113 0.82436-0.36831 1.6613-0.47005 2.5056 0.048753 0.63903 0.19984 1.2664 0.44767 1.859 1.6937 4.8422 6.2674 15.937 6.2226 21.066-7.9461-2.0059-19.66-2.4541-27.867-2.4909-2.257-0.023261-4.5136 0.074855-6.7598 0.29391-5.3944 0.57312-10.916 2.1235-16.146 0.69069-4.8572-1.3299-9.1548-5.1434-14.176-4.6658-1.0893-2.8068 0.19399-12.175 1.2162-15.011 3.985-11.168 4.7596-23.203 2.2383-34.777-0.91772-4.1588 0.34321-8.5748-0.67896-12.704-0.18682-0.97704-0.56711-1.9083-1.1192-2.7407-0.56528-0.84032-1.5284-1.3368-2.5517-1.3152-0.09299-6.6423 0.5323-13.276 1.8653-19.787 0.49244-2.3145 1.4922-5.0479 3.9022-5.4447 2.1339-0.36004 3.9246 1.4181 5.6406 2.7187 1.7595 1.3413 3.7974 2.2846 5.9689 2.7628 0.87426 0.10256 1.7122 0.40447 2.4473 0.88173 1.0222 0.83764 1.1714 2.3439 2.007 3.3653 1.4922 1.8296 4.8274 1.6753 5.8868 3.7841 0.23164 0.62815 0.41861 1.2714 0.55958 1.9251 0.50117 1.2531 1.3554 2.3391 2.4622 3.1301 1.6619 1.5387 3.6841 2.6493 5.8868 3.233z"/>
</defs>
<g fill="none" fill-rule="evenodd">
<ellipse cx="719" cy="571" rx="48" ry="13" fill="#238A74" fill-rule="nonzero" opacity=".1"/>
<path d="m796.09 517.09c-18.107 15.009-43.874 21.22-68.793 25.143l-4.1941 0.63899c-26.027 3.8785-52.344 5.944-78.751 7.1997-14.129 0.68357-28.258 1.1665-42.387 1.5975l-11.073 0.32692c-14.377 0.42599-28.781 0.84455-43.212 1.2557-14.129 0.40122-28.258 0.77768-42.387 1.1294-18.095 0.44085-36.19 0.8074-54.285 1.0996-14.129 0.2229-28.258 0.37646-42.387 0.46066-18.1 0.10402-36.195 0.069348-54.285-0.10402-14.139-0.14365-28.268-0.39132-42.387-0.74301-18.105-0.46562-36.2-1.1467-54.285-2.0433-12.275-0.59936-24.542-1.3201-36.802-2.1621l-5.5847-0.39379c-52.627-3.7893-106.2-10.588-152.25-32.076l-1.2419-0.58698c-0.61721-0.28977-1.2344-0.57954-1.8516-0.88418-8.4557-4.0393-16.555-8.7841-24.213-14.184-13.616-9.7037-24.86-21.547-30.801-35.597-9.3103-22.038-4.3874-46.809 6.2465-68.357 10.634-21.547 26.6-40.999 40.409-61.291 4.0454-5.9441 7.8825-12.111 11.452-18.434 22.309-39.654 33.374-85.542 9.987-123.76-3.087-4.8721-6.4203-9.5839-9.987-14.117-5.7037-7.4301-11.504-14.86-15.423-23.085-9.1392-19.14-7.1761-40.665-3.8446-61.112 4.4618-27.187 12.642-56.468 38.208-73.454 26.525-17.639 64.175-16.747 97.096-10.402 51.184 9.8003 98.427 30.315 146.12 48.816 47.689 18.501 97.646 35.419 150.08 37.239 11.264 0.38512 22.54-0.024547 33.746-1.226 14.939-1.5338 29.674-4.6344 43.964-9.2504 20.636-6.7911 39.413-17.007 53.333-31.206 29.857-30.352 85.964-32.648 126.42-14.318 38.602 17.49 63.566 54.507 61.721 91.479-2.097 41.155-32.943 74.992-61.208 109.7-3.4281 4.2054-6.8117 8.4257-10.106 12.676-1.8393 2.3727-3.6438 4.7503-5.4136 7.1329-3.1009 4.2054-6.0978 8.4331-8.9236 12.713-14.441 21.941-24.651 48.295-14.709 71.982 5.5772 13.263 16.219 23.382 29.046 32.217 28.741 19.786 68.414 33.101 86.261 60.8 15.378 23.873 9.6821 56.097-13.296 75.177z" fill="#238A74" fill-rule="nonzero" opacity=".1"/>
<g transform="translate(340)" fill-rule="nonzero" opacity=".1">
<path d="m73.313 408.29c0.029772 0.69863 0.081872 1.3824 0.1563 2.0513 5.7906-2.304 11.475-4.7814 17.052-7.4322 2.9764-0.39435 5.7432-1.7458 7.8821-3.8499 1.63-0.81754 3.2526-1.6722 4.8602-2.5269-0.3638-0.76877-0.77648-1.5135-1.2355-2.2297-3.1335-4.9424-7.8969-8.0342-13.144-7.8633-5.2473 0.17094-9.7874 3.5675-12.593 8.6882-2.1529 4.0428-3.1809 8.5881-2.9772 13.162z" fill="#3F3D56"/>
<path d="m72.457 382.3c0.11223 4.5543 1.4351 8.9969 3.8331 12.873 3.1409 4.9275 7.9044 8.0193 13.152 7.8484 0.3647 0 0.74429-0.052025 1.0792-0.081754 2.9764-0.39435 5.7432-1.7458 7.8821-3.8499 1.4516-1.3794 2.675-2.9798 3.6247-4.7417 4.2703-8.2274 3.9489-18.08-0.84849-26.013-3.1409-4.9424-7.9044-8.0342-13.152-7.8633-5.2473 0.17094-9.78 3.5675-12.586 8.6882-2.1512 4.0357-3.1817 8.5726-2.9846 13.14z" fill="#3F3D56"/>
<ellipse transform="rotate(-1.88 87.884 355.76)" cx="87.884" cy="355.76" rx="16.278" ry="21.278" fill="#3F3D56"/>
<ellipse transform="rotate(-1.88 87.03 329.78)" cx="87.03" cy="329.78" rx="16.278" ry="21.278" fill="#3F3D56"/>
<ellipse transform="rotate(-1.88 86.177 303.78)" cx="86.177" cy="303.78" rx="16.278" ry="21.278" fill="#3F3D56"/>
<path d="m141.26 123.95c2.1298-2.8975 4.0547-5.9397 5.7608-9.1044l-42.975-5.6039 46.235-1.1743c8.3232-19.761 8.1293-42.073-0.53589-61.687l-60.965 34.151 55.822-43.85c-15.489-24.605-43.413-38.547-72.418-36.157-29.006 2.3898-54.264 20.713-65.504 47.521-11.241 26.807-6.5921 57.635 12.055 79.948-3.317 4.5111-6.1392 9.3649-8.4179 14.478l56.425 26.964-59.811-17.882c-7.619 25.187-1.9893 52.512 14.968 72.65-24.066 32.726-18.901 78.427 11.864 104.97 30.765 26.547 76.797 25.025 105.73-3.4967 28.938-28.522 31.064-74.463 4.8821-105.53 21.31-28.946 20.021-68.693-3.1186-96.202z" fill="#238A74"/>
<path d="m3.6392 176.61c0.54404 17.457 6.9777 34.218 18.258 47.566-24.072 32.722-18.916 78.423 11.844 104.98 30.76 26.553 76.792 25.039 105.74-3.4775 28.944-28.517 31.077-74.458 4.9008-105.53 10.011-13.571-141.02-52.271-140.74-43.538z" fill="#000"/>
</g>
<g transform="translate(178 255)" fill-rule="nonzero" opacity=".1">
<path d="m64.083 290.19c0 0.48914-0.052051 0.97827-0.11154 1.4822-4.1145-1.6305-8.1572-3.377-12.128-5.2397-2.1157-0.27566-4.0838-1.2304-5.6067-2.7199-1.16-0.58795-2.3126-1.1858-3.4577-1.7935 0.25841-0.54191 0.5515-1.0667 0.87744-1.5712 2.2308-3.5129 5.6067-5.7066 9.3395-5.588 3.7328 0.11858 6.96 2.5198 8.9231 6.1513 1.537 2.8459 2.284 6.049 2.1638 9.2788z" fill="#3F3D56"/>
<path d="m64.663 271.75c-0.073219 3.2313-1.0074 6.3851-2.7067 9.138-2.2308 3.4981-5.6141 5.6992-9.3395 5.5806l-0.74359-0.059289c-2.1157-0.27567-4.0838-1.2304-5.6067-2.7199-1.0344-0.97747-1.9054-2.1133-2.5803-3.3647-3.0326-5.8323-2.813-12.815 0.58-18.446 2.2308-3.5129 5.6141-5.7066 9.3395-5.588 3.7254 0.11858 6.96 2.5198 8.9603 6.1513 1.519 2.8611 2.2429 6.0748 2.0969 9.3084z" fill="#3F3D56"/>
<ellipse transform="rotate(-88.19 53.699 252.97)" cx="53.699" cy="252.97" rx="15.097" ry="11.57" fill="#3F3D56"/>
<ellipse transform="rotate(-88.19 54.277 234.52)" cx="54.277" cy="234.52" rx="15.097" ry="11.57" fill="#3F3D56"/>
<ellipse transform="rotate(-88.19 54.862 216.08)" cx="54.862" cy="216.08" rx="15.097" ry="11.57" fill="#3F3D56"/>
<path d="m15.548 88.475c-1.5162-2.0561-2.89-4.2128-4.1121-6.4551l30.547-4.0465-32.874-0.74112c-5.9379-14.019-5.8196-29.856 0.32718-43.785l43.374 24.183-39.723-31.09c10.957-17.543 30.82-27.524 51.487-25.872 20.666 1.6523 38.68 14.662 46.691 33.721 8.0109 19.059 4.6796 40.981-8.6346 56.821 2.3656 3.1985 4.3776 6.6425 6.0008 10.272l-40.094 19.18 42.511-12.747c5.4355 17.871 1.4592 37.268-10.574 51.582 17.146 23.198 13.523 55.635-8.3222 74.507-21.845 18.872-54.574 17.842-75.18-2.3672-20.606-20.209-22.168-52.809-3.587-74.882-15.173-20.528-14.279-48.739 2.1638-68.272v-0.0074111z" fill="#238A74"/>
<path d="m113.41 125.72c-0.37305 12.387-4.9292 24.287-12.931 33.773 17.146 23.198 13.523 55.635-8.3222 74.507-21.845 18.872-54.574 17.842-75.18-2.3672-20.606-20.209-22.168-52.809-3.587-74.882-7.131-9.6345 100.23-37.234 100.02-31.031z" fill="#000"/>
</g>
<g transform="translate(566 158)" fill-rule="nonzero" opacity=".1">
<path d="m63.912 290.15c0 0.49655-0.052051 0.97827-0.1041 1.4822-4.1195-1.6305-8.1621-3.377-12.128-5.2397-2.1175-0.27673-4.0877-1.2312-5.6141-2.7199-1.1526-0.58548-2.3126-1.1858-3.4577-1.7935 0.2613-0.54042 0.55428-1.0651 0.87744-1.5712 2.2308-3.5129 5.6067-5.7066 9.3395-5.588 3.7328 0.11858 6.96 2.5198 8.9231 6.1513 1.537 2.8459 2.284 6.049 2.1638 9.2788z" fill="#3F3D56"/>
<path d="m64.536 271.71c-0.07546 3.232-1.0122 6.3858-2.7141 9.138-2.2308 3.4981-5.6067 5.6992-9.3395 5.5806l-0.74359-0.059289c-2.1175-0.27673-4.0877-1.2312-5.6141-2.7199-1.0314-0.98014-1.902-2.1155-2.5803-3.3647-3.0326-5.8323-2.813-12.815 0.58-18.446 2.2308-3.5055 5.6141-5.7066 9.3395-5.588 3.7254 0.11858 6.9674 2.5198 8.9603 6.1513 1.5241 2.8596 2.2532 6.0734 2.1118 9.3084z" fill="#3F3D56"/>
<ellipse transform="rotate(-88.19 53.553 252.93)" cx="53.553" cy="252.93" rx="15.097" ry="11.57" fill="#3F3D56"/>
<ellipse transform="rotate(-88.19 54.138 234.48)" cx="54.138" cy="234.48" rx="15.097" ry="11.57" fill="#3F3D56"/>
<ellipse transform="rotate(-88.19 54.723 216.04)" cx="54.723" cy="216.04" rx="15.097" ry="11.57" fill="#3F3D56"/>
<path d="m15.377 88.437c-1.518-2.0534-2.8896-4.2104-4.1046-6.4551l30.547-4.0094-32.874-0.79299c-5.935-14.019-5.8194-29.854 0.31974-43.785l43.374 24.183-39.723-31.075c10.938-17.587 30.819-27.608 51.514-25.966 20.695 1.6415 38.735 14.671 46.745 33.76 8.0096 19.09 4.6458 41.04-8.7162 56.876 2.3632 3.1988 4.3727 6.6427 5.9933 10.272l-40.094 19.18 42.511-12.747c5.444 17.868 1.4667 37.267-10.574 51.574 17.148 23.195 13.528 55.63-8.3144 74.502-21.843 18.872-54.571 17.841-75.174-2.3676-20.604-20.209-22.161-52.807-3.5783-74.877-15.173-20.528-14.279-48.739 2.1638-68.272h-0.014872z" fill="#238A74"/>
<path d="m113.24 125.69c-0.3727 12.387-4.9319 24.285-12.939 33.765 17.145 23.195 13.523 55.628-8.3193 74.499-21.842 18.87-54.568 17.84-75.171-2.3673-20.603-20.207-22.163-52.803-3.5838-74.873-7.1385-9.6271 100.21-37.234 100.01-31.023z" fill="#000"/>
</g>
<ellipse cx="145" cy="559.5" rx="43" ry="8.5" fill="#238A74" fill-rule="nonzero"/>
<ellipse cx="143" cy="555.5" rx="5" ry="6.5" fill="#3F3D56" fill-rule="nonzero"/>
<ellipse cx="143" cy="547.5" rx="5" ry="6.5" fill="#3F3D56" fill-rule="nonzero"/>
<ellipse cx="143" cy="538.5" rx="5" ry="6.5" fill="#3F3D56" fill-rule="nonzero"/>
<ellipse cx="143" cy="531.5" rx="5" ry="6.5" fill="#3F3D56" fill-rule="nonzero"/>
<ellipse cx="143" cy="524.5" rx="5" ry="6.5" fill="#3F3D56" fill-rule="nonzero"/>
<ellipse cx="143" cy="515.5" rx="5" ry="6.5" fill="#3F3D56" fill-rule="nonzero"/>
<ellipse cx="143" cy="507.5" rx="5" ry="6.5" fill="#3F3D56" fill-rule="nonzero"/>
<path d="m161.86 454.73c0.68304-0.86961 1.3059-1.7846 1.8641-2.7386l-13.162-2.1593 14.234 0.11286c2.7588-5.9887 2.9253-12.845 0.46037-18.96l-19.102 9.8786 17.615-12.933c-4.5016-7.7432-12.962-12.334-21.929-11.9-8.9668 0.43416-16.941 5.821-20.669 13.963-3.7277 8.1416-2.5857 17.677 2.9601 24.714-1.0644 1.3531-1.9803 2.8161-2.732 4.3637l17.087 8.8479-18.219-6.0942c-2.6 7.6586-1.1467 16.108 3.8641 22.466-7.7351 9.8091-6.6099 23.897 2.5847 32.363 9.1946 8.4654 23.371 8.4654 32.566 0 9.1946-8.4654 10.32-22.553 2.5847-32.363 6.8427-8.6813 6.8427-20.902 0-29.583l-0.007547 0.022571z" fill="#238A74" fill-rule="nonzero"/>
<path d="m119 469.35c-0.008461 5.2807 1.7998 10.41 5.1324 14.557-7.7351 9.6532-6.6099 23.517 2.5847 31.848 9.1946 8.3308 23.371 8.3308 32.566 0 9.1946-8.3308 10.32-22.195 2.5847-31.848 3.2075-4.0056-42.868-17.2-42.868-14.557z" fill="#000" fill-rule="nonzero" opacity=".1"/>
<path d="m258 384.57v168.43c-12.452-0.60117-24.897-1.3241-37.335-2.1687l-5.6654-0.39498v-165.86c0-1.7433 0.70101-3.4152 1.9488-4.6479s2.9402-1.9252 4.7049-1.9252h29.693c1.7647 0 3.4571 0.69252 4.7049 1.9252s1.9488 2.9046 1.9488 4.6479zm54 171.69v-283.67c0-3.6382 2.979-6.5875 6.6537-6.5875h29.693c1.7647 0 3.4571 0.69404 4.7049 1.9294s1.9488 2.911 1.9488 4.6581v284.41l-43-0.73941zm98 0.73941v-224.45c0-3.6202 2.979-6.555 6.6537-6.555h29.693c3.6747 0 6.6537 2.9348 6.6537 6.555v223.96l-43 0.48308zm138-392.46v387.33c-14.333 0.40042-28.667 0.77612-43 1.1271v-388.46c0-3.6121 2.979-6.5402 6.6537-6.5402h29.693c3.6747 0 6.6537 2.9281 6.6537 6.5402zm97 79.013v306.85c-14.333 0.68354-28.667 1.1665-43 1.5974v-308.45c0-3.6192 2.979-6.5531 6.6537-6.5531h29.693c3.6747 0 6.6537 2.9339 6.6537 6.5531z" fill="#3F3D56" fill-rule="nonzero"/>
<polyline points="238 287 334.5 178.74 431 233.24 527.5 66 624 145.89" stroke="#3F3D56" stroke-linecap="round" stroke-width="7"/>
<circle cx="237" cy="287" r="21" fill="#238A74" fill-rule="nonzero"/>
<circle cx="334" cy="178" r="21" fill="#238A74" fill-rule="nonzero"/>
<circle cx="430" cy="234" r="21" fill="#238A74" fill-rule="nonzero"/>
<circle cx="526" cy="66" r="21" fill="#238A74" fill-rule="nonzero"/>
<circle cx="713" cy="243" r="21" fill="#238A74" fill-rule="nonzero"/>
<ellipse cx="174" cy="537.5" rx="14" ry="2.5" fill="#238A74" fill-rule="nonzero" opacity=".1"/>
<path d="m164 527.58s7.7902-0.2623 10.138-2.0825c2.348-1.8202 11.989-3.9742 12.574-1.073 0.58518 2.9012 11.704 14.498 2.9259 14.577-8.7777 0.079485-20.445-1.4943-22.786-3.0443-2.3407-1.5499-2.8528-8.3777-2.8528-8.3777z" fill="#A8A8A8" fill-rule="nonzero"/>
<path d="m189.79 537.03c-8.7806 0.076529-20.444-1.4311-22.793-2.9234-1.7854-1.1403-2.4952-5.2193-2.7366-7.1019h-0.2561s0.49025 6.5738 2.8391 8.0662c2.3488 1.4923 13.99 3.0076 22.793 2.9311 2.5391 0 3.4171-0.96427 3.3659-2.3647-0.35122 0.84947-1.3171 1.3775-3.2122 1.3928z" fill="#000" fill-rule="nonzero" opacity=".2"/>
<ellipse cx="792" cy="557.5" rx="26" ry="4.5" fill="#238A74" fill-rule="nonzero" opacity=".1"/>
<path d="m775 538s14.243-0.45434 18.537-3.6347 21.907-6.9741 22.97-1.8779c1.0626 5.0962 21.412 25.367 5.3276 25.504-16.085 0.1363-37.366-2.6049-41.653-5.3006-4.2868-2.6957-5.182-14.69-5.182-14.69z" fill="#A8A8A8" fill-rule="nonzero"/>
<path d="m822.13 555.29c-16.086 0.12965-37.369-2.4778-41.656-5.0419-3.2609-1.9664-4.5638-9.0251-5.0005-12.245h-0.47312s0.90257 11.373 5.1825 13.952c4.2799 2.5786 25.578 5.1932 41.656 5.0419 4.6438 0 6.2452-1.671 6.1578-4.0912-0.64781 1.4406-2.4165 2.3553-5.8667 2.3841z" fill="#000" fill-rule="nonzero" opacity=".2"/>
<path d="m631.12 257.03c0.13983 1.3016 0.66379 2.5341 1.507 3.5448 1.0925 1.2188 2.7276 1.7761 4.1969 2.5044 3.8024 1.9195 6.7068 5.2127 8.1075 9.1927 2.5091 7.2234 2.8331 14.863 6.0279 21.834 3.1948 6.9707 6.9471 13.666 9.7048 20.808 1.5672 4.0502 2.818 8.2638 5.1161 11.95 1.1126 1.8128 2.5321 3.424 4.1969 4.7636-0.1733 2.6159-0.24111 5.202-0.22604 7.8179 1.0349-0.020119 2.0078 0.48493 2.5769 1.3377 0.55759 0.84725 0.94156 1.794 1.1302 2.7868 1.0323 4.2136-0.24111 8.7023 0.68567 12.938 2.5462 11.783 1.7643 24.029-2.2604 35.404-1.0323 2.8834-2.3283 12.425-1.2282 15.287 4.0989-0.40873 7.7307 2.0734 11.566 3.7157 0.3101 2.2419 0.12503 4.5235-0.54251 6.6883-1.3789 3.9164-1.3713 8.1746-1.3487 12.314l0.18837 30.662c0 3.8867 0.052744 7.8253 1.0398 11.593 1.1227 4.2434 3.4811 8.5685 3.4057 12.953-0.20344 9.438 4.3175 18.43 3.9558 27.794-0.067814 1.7984-0.31646 3.582-0.48976 5.3655-0.44498 4.7513-0.32359 9.5376 0.36167 14.261 1.3713 9.4082 4.9956 18.66 4.0914 28.121-0.060279 0.63911-0.27879 1.4863-0.88911 1.7315 0.75348 0.83976 1.5522 1.6721 2.3659 2.4672-0.16466 0.2708-0.38864 0.50186-0.65553 0.67626-0.89035 0.4586-1.8743 0.71265-2.8783 0.74315-1.1779 0.03048-2.3216 0.39702-3.2927 1.0553-0.70588 0.66796-1.1849 1.535-1.3713 2.4821-0.54247 1.8939-0.21172 3.9273 0.90418 5.5587 0.67277 0.83529 1.5525 1.4854 2.5543 1.8876 3.4811 1.4863 7.4745 0.40873 11.106-0.67626l14.226-4.2508c0.8677-0.17776 1.6684-0.58936 2.3132-1.189 0.29499-0.3437 0.49025-0.75968 0.56511-1.2039 3.142 0.74315 6.593-0.17092 9.7953-1.1147l14.226-4.2582c0.86892-0.17438 1.6705-0.58644 2.3132-1.189 0.51839-0.62184 0.73084-1.4382 0.58018-2.2294 0.10549-0.044588 0.21098-0.074314 0.31646-0.12634 1.085-0.48305 2.2604-1.4268 1.9967-2.5639-0.18837-0.74315-0.94185-1.1742-1.2658-1.8579-0.31014-0.9047-0.10926-1.9038 0.52744-2.6233 0.55758-0.74315 1.3111-1.36 1.8234-2.1403 1.6426-2.4821 0.52744-5.7445-0.090418-8.6502-1.3337-6.2053-0.097953-12.686-0.94185-18.973-0.28632-2.118-0.80622-4.1988-1.2206-6.3019-0.87815-4.9709-1.4593-9.9883-1.7405-15.026-0.54251-7.1937-2.5694-14.283-1.409-21.418 0.56348-4.1871 0.80277-8.4105 0.71581-12.634 0.081981-2.6902-0.036383-5.3826-0.35414-8.0557-0.29386-1.9916-0.81376-3.9461-1.0398-5.9452-0.18339-2.247-0.22366-4.5032-0.12056-6.7552 0.10389-5.0201-0.36623-10.036-1.4015-14.952-1.507-6.7552-4.3401-13.221-5.5456-19.991 0.40688 0.089177 0.81376 0.17836 1.2056 0.2824 0.045209-5.202-4.5736-16.513-6.284-21.447-0.25037-0.60443-0.40292-1.2439-0.45209-1.895 0.10341-0.85871 0.26196-1.7101 0.47469-2.549 0.21851-1.7984-0.75348-3.5077-1.0172-5.3061-0.10274-1.2651-0.008724-2.5382 0.27879-3.7752 1.2131-6.6512 2.7201-13.25 4.227-19.842 0.65704-2.3874 0.88402-4.87 0.6706-7.3349-0.35433-2.643 0.47022-5.3077 2.2604-7.3051 0.66205-0.60246 1.2262-1.3018 1.6727-2.0734 0.25058-0.66215 0.36334-1.3673 0.33153-2.0734-0.029926-3.0569-0.4863-6.0951-1.3563-9.0292 1.3261-2.3706 1.8159-5.2838 2.2002-8.0334 0.8439-6.0715 1.6878-12.173 1.6577-18.304 0.067134-3.2707-0.39061-6.5313-1.3563-9.6609-0.70538-1.9329-1.5671-3.8067-2.5769-5.6033-3.9633-7.5281-7.7533-15.45-12.756-22.346-1.507-2.0957-0.55758-4.9865-0.45209-7.5727 0.11302-3.1212-1.1378-6.1161-2.3659-8.9847-0.62658-1.7655-1.588-3.3972-2.8331-4.8082-0.85102-0.92379-2.0501-1.4613-3.3153-1.4863-1.4354 0.17298-2.7244 0.95094-3.5338 2.1328-1.8405 2.4727-2.6028 5.5683-2.1173 8.5982 0.50056 3.0027 1.8272 5.8123 3.8352 8.1226 0.96996 1.1625 2.0809 2.2032 3.3078 3.0989 1.2458 3.904 2.5016 7.8055 3.7674 11.705 1.9892 6.2053 3.9784 12.44 6.7813 18.311 0.8213 1.7018 1.7255 3.4333 1.8234 5.3135 0.10549 2.0288-0.75348 3.961-1.4392 5.8709-1.4445 3.9807-2.2627 8.156-2.4262 12.381-0.22028 0.09633-0.43199 0.21068-0.63292 0.34185-2.3735 1.5309-3.1194 4.8676-5.5908 6.235-1.4392 0.79517-3.1872 0.74315-4.7997 1.1073-0.14316 0-0.28632 0.074315-0.43702 0.1189-0.060279-0.29726-0.12056-0.58709-0.15823-0.89178-0.023134-0.19006-0.023134-0.38216 0-0.57222 3.8419-2.0834 7.0693-5.1153 9.3658-8.7989 0.4839-0.68217 0.85755-1.4343 1.1076-2.2294 0.20337-0.95286 0.24158-1.9328 0.11302-2.8983-0.12586-3.2224-0.59305-6.4229-1.3939-9.5494-0.80387-3.1416-2.5628-5.9656-5.0408-8.0929-1.2357-0.98096-2.6598-1.7167-3.888-2.7051-2.3961-1.9099-4.0387-4.7338-6.7813-6.1533-3.6056-1.7319-7.9528-0.62303-10.255 2.6159-0.36484 0.72504-0.87793 1.3677-1.507 1.8876-0.47976 0.22386-0.94754 0.4719-1.4015 0.74315-0.82883 0.65397-0.87404 1.9099-0.60278 2.928 0.51415 2.092 0.80208 4.2318 0.85897 6.3836-5.0222 5.8129-5.0413 14.357-0.045209 20.191 0 1.3823 0 2.7645-0.052744 4.1468 0 0.2601 0 0.52763-0.052743 0.78774-0.86895-0.29862-1.6468-0.81004-2.2604-1.4863-0.8439-1.0404-0.9946-2.5713-2.0269-3.4259-0.74232-0.4827-1.5885-0.78804-2.4714-0.89178-2.1943-0.49168-4.2522-1.4532-6.0279-2.8165-1.3939-1.0627-2.8406-2.4227-4.4681-2.7348-2.8083-5.1955-6.0867-10.13-9.7953-14.744-0.94052-1.0922-1.7969-2.2523-2.5618-3.4705-1.62-2.7868-2.1022-6.0641-3.127-9.1184-2.8632-8.5611-10.006-15.428-11.747-24.286-0.63292-3.2104-2.6975-6.0046-4.114-8.9624-0.95692-1.9991-2.0118-4.1096-3.9256-5.2541-2.4639-1.4863-5.8696-0.8026-7.9191 1.1965-2.0104 2.1183-2.9144 5.0347-2.4488 7.8997zm89.461 300.74c-0.89035 0.4586-1.8743 0.71265-2.8783 0.74315-0.50636 0.051965-1.0094 0.13135-1.507 0.23781-0.18837-1.5606-0.29386-3.1435-0.41442-4.6818-0.39934-5.046-1.198-10.055-1.9892-15.056-0.82883-5.202-1.2206-10.895-3.0139-15.888-2.8858-8.13-5.8093-16.505-5.4401-25.118 0.082883-1.9545 0.33153-3.8941 0.43702-5.8411 0.24111-4.823-0.44455-9.7501 0.75348-14.439 0.53497-2.1328 1.4467-4.1691 1.7933-6.339 0.22107-1.9597 0.24631-3.936 0.075348-5.9006-0.32931-6.8196 0.24569-13.652 1.7104-20.325 1.4015 1.8058 1.8611 4.1393 2.2604 6.3762l2.8256 15.116c1.6803 8.9698 3.1646 18.482 7.6177 26.463-0.62539 2.876-1.2432 5.9452-0.21098 8.6948 0.44456 1.189 1.1754 2.2294 1.6275 3.4333 0.75348 1.9991 0.648 4.1988 0.87404 6.3168 0.48976 4.4589 2.3584 8.8435 0.98706 13.146-1.4106 4.4368-2.3277 9.0118-2.7351 13.644-0.074925 1.2883-0.22588 2.5711-0.45209 3.8421-0.24111 1.1444-0.63292 2.2294-0.85144 3.4036-0.30128 1.6478-0.22663 3.341 0.21851 4.9568 0.33831 0.89551 0.54633 1.8338 0.61786 2.7868 0 0.95123-1.183 1.6349-2.1324 1.7836 0.27879 0.35671 0.58018 0.69856 0.88911 1.033-0.18137 0.63081-0.55167 1.1929-1.0624 1.6126z" fill="url(#b)" fill-rule="nonzero"/>
<path d="m690.77 566.02c-1.1419 0.031363-2.2507 0.40853-3.1921 1.0859-0.68673 0.67918-1.1518 1.5674-1.3294 2.5388-0.52453 1.9339-0.20354 4.0118 0.87654 5.674 0.65265 0.8572 1.5056 1.5236 2.4762 1.9347 3.3747 1.5294 7.2461 0.41294 10.767-0.69587l13.791-4.3435c0.84065-0.17998 1.617-0.60092 2.2425-1.2159 0.77842-1.0976 0.80193-2.5926 0.058436-3.7164-0.74087-1.0792-1.7519-1.9233-2.9218-2.4394-4.2877-2.187-9.1233-2.6841-13.835-2.7758-1.7531 0-3.4842-0.44352-4.6749 0.97116-0.62819 0.7647-0.51132 1.5829-1.4609 2.2329-0.86796 0.46378-1.8236 0.71976-2.7976 0.7494z" fill="#3F3D56" fill-rule="nonzero"/>
<path d="m717.77 559.02c-1.1414 0.034815-2.2493 0.41169-3.1922 1.0859-0.68519 0.68046-1.15 1.5681-1.3295 2.5388-0.52375 1.9365-0.20288 4.0164 0.87658 5.6818 0.65517 0.85269 1.5076 1.516 2.4763 1.9271 3.3821 1.5294 7.2464 0.42059 10.767-0.68824l13.792-4.3512c0.84069-0.17998 1.6171-0.60093 2.2426-1.2159 0.77721-1.0952 0.80072-2.5874 0.058439-3.7089-0.74173-1.0784-1.7526-1.9223-2.9219-2.4394-4.2952-2.1871-9.131-2.6918-13.843-2.7836-1.7532 0-3.4771-0.43589-4.6751 0.97883-0.62822 0.76471-0.51134 1.5753-1.461 2.2253-0.86309 0.47012-1.8178 0.72651-2.7904 0.74942z" fill="#3F3D56" fill-rule="nonzero"/>
<path d="m705.81 405.67c8.2961-0.8311 16.642-1.0646 24.971-0.69879 0.54966-0.005611 1.0964 0.079802 1.618 0.25275 1.8343 0.74339 2.1176 3.1371 2.2891 5.0922 0.74564 7.9394 4.2203 15.336 5.9651 23.112 1.0246 4.8877 1.4899 9.8756 1.3869 14.868-0.10078 2.2305-0.060939 4.465 0.1193 6.6905 0.22369 1.9849 0.74564 3.9326 1.029 5.91 0.31458 2.6565 0.43171 5.3326 0.35045 8.0063 0.085304 4.1922-0.15151 8.3848-0.70836 12.541-1.1483 7.0845 0.85748 14.124 1.3943 21.291 0.26755 5.0122 0.83274 10.004 1.6926 14.95 0.4101 2.0889 0.92459 4.1556 1.2079 6.2594 0.83512 6.2519-0.38773 12.69 0.93205 18.86 0.61142 2.8844 1.715 6.1256 0.089477 8.5936-0.50704 0.74339-1.2527 1.3753-1.8044 2.1261-0.63031 0.71372-0.82943 1.7091-0.52195 2.6093 0.32062 0.67649 1.0663 1.1225 1.2527 1.8436 0.2908 1.1374-0.90222 2.0666-1.9759 2.5498-8.0902 3.6426-18.522 1.0779-23.98-5.9025 0.9395-0.14868 2.0878-0.82517 2.1102-1.7767-0.071682-0.94599-0.27754-1.8771-0.61142-2.7654-0.43915-1.6038-0.51303-3.2853-0.21624-4.9213 0.21624-1.1448 0.60397-2.2302 0.84257-3.3824 0.22385-1.2639 0.37323-2.5397 0.44738-3.821 0.40331-4.6048 1.3109-9.1517 2.7067-13.559 1.3571-4.2745-0.49212-8.6011-0.97679-13.061-0.22369-2.1112-0.12676-4.2894-0.86494-6.2817-0.44738-1.1746-1.1707-2.2302-1.6106-3.4047-1.0215-2.7431-0.4101-5.791 0.20878-8.6457-4.4067-7.932-5.8756-17.388-7.5384-26.301l-2.7961-15.017c-0.41756-2.2302-0.8724-4.5421-2.2369-6.3411-1.4494 6.6296-2.0185 13.42-1.6926 20.198 0.1691 1.9528 0.14412 3.9175-0.074564 5.8654-0.34299 2.1558-1.2452 4.1853-1.7746 6.2965-1.1557 4.6611-0.47721 9.5526-0.74564 14.347-0.10439 1.9403-0.35045 3.8656-0.43247 5.8059-0.36536 8.5639 2.5277 16.89 5.3835 24.971 1.7523 4.9584 2.14 10.593 2.9826 15.782 0.74564 4.9733 1.5733 9.9466 1.9685 14.965 0.36536 4.609 0.5294 9.5972 3.4076 13.218-2.6321 1.7024-5.3462 3.4345-8.4257 4.0218-3.5887 0.55977-7.2607-0.15034-10.379-2.0072-3.1009-1.8485-5.8726-4.1974-8.202-6.9507 0.60397-0.20815 0.8202-1.0854 0.87986-1.7172 0.89477-9.4114-2.6918-18.585-4.0488-27.952-0.67837-4.6925-0.7985-9.4485-0.35791-14.169 0.1715-1.7767 0.41756-3.5534 0.48466-5.3376 0.35791-9.2998-4.1383-18.258-3.9743-27.565 0.074564-4.3637-2.2369-8.6605-3.3703-12.876-0.97679-3.717-1.0066-7.657-1.029-11.523l-0.18641-30.479c0-4.1184 0-8.3409 1.3347-12.229 1.6404-4.6834-0.2386-10.058-0.52195-15.009 7.7482 2.4483 15.903 3.355 24.002 2.6688z" fill="#696791" fill-rule="nonzero"/>
<path d="m679.49 318.03c-3.1675-6.3416-7.0365-12.323-11.537-17.838-0.94045-1.077-1.7969-2.2217-2.5622-3.4244-1.6202-2.7528-2.1025-5.9853-3.1274-8.9963-2.8636-8.4428-10.008-15.225-11.748-23.956-0.63302-3.1734-2.6979-5.9041-4.1146-8.8561-0.95706-1.9705-2.0121-4.0517-3.9262-5.1661-2.4642-1.476-5.8705-0.79669-7.9202 1.1808-1.9987 2.086-2.8951 4.9625-2.4266 7.786 0.14111 1.2856 0.66526 2.5022 1.5072 3.4982 1.0927 1.203 2.728 1.7491 4.1975 2.4723 3.7971 1.8849 6.7027 5.135 8.1086 9.0701 2.5095 7.1218 2.8335 14.664 6.0287 21.543 3.1952 6.8783 6.9481 13.476 9.7062 20.509 1.5675 3.9926 2.8184 8.1181 5.1169 11.808s5.8855 6.7823 10.219 7.3358c-0.029358-2.6751 0.3855-5.3372 1.2284-7.882 0.94199-2.9078 2.615-6.3321 1.251-9.0849zm45.056 6.5541c-0.19083-5.2144 0.62842-10.417 2.4132-15.324 0.68313-1.8805 1.4851-3.7905 1.4182-5.789-0.096529-1.8584-0.98757-3.5619-1.7969-5.2433-2.7919-5.789-4.7522-11.925-6.6828-18.045l-3.7127-11.541c-1.2105-0.88157-2.3055-1.9096-3.2597-3.0604-1.9791-2.2725-3.2871-5.0442-3.7795-8.0087-0.4786-2.9858 0.27346-6.0372 2.0865-8.4659 0.80055-1.1686 2.0699-1.9373 3.4825-2.1091 1.2463 0.027358 2.4269 0.56034 3.2672 1.4749 1.2248 1.3878 2.1724 2.9946 2.7919 4.7344 1.2103 2.8318 2.4429 5.7816 2.3316 8.8494-0.10396 2.5516-1.0618 5.3981 0.44552 7.4704 4.9304 6.7993 8.6654 14.609 12.571 22.035 0.99629 1.7695 1.8456 3.6168 2.5395 5.5235 0.95385 3.09 1.405 6.3114 1.3366 9.5426 0 6.0397-0.80194 12.057-1.6336 18.045-0.5272 3.7536-1.2178 7.8391-4.0765 10.324-2.9701-3.7757-5.9551-7.463-9.7421-10.413z" fill="#A0616A" fill-rule="nonzero"/>
<circle cx="705.5" cy="309.5" r="15.5" fill="#A0616A" fill-rule="nonzero"/>
<path d="m712.85 327.77c0.37775 2.7624 1.8963 5.2375 3.3771 7.6242 0.8915 1.4733 2.0323 3.0423 3.7775 3.2044-4.5421 2.3242-9.3135 4.1949-14.241 5.5837-1.6749 0.54868-3.431 0.82492-5.1979 0.8178-1.4973-0.10905-2.9629-0.47566-4.3291-1.083-6.0539-2.5705-10.563-7.708-12.232-13.937 1.9518 0.050696 3.9038-0.094945 5.825-0.43461 1.0971-0.082154 2.1197-0.57277 2.8558-1.3701 0.43778-0.74674 0.64259-1.6018 0.5893-2.4604 0.075551-2.5488 0.083106-5.1049 0-7.6536 3.8521-0.23938 7.7161 0.22531 11.393 1.3701 1.511 0.47881 3.022 1.0534 4.5331 1.4291 0.95194 0.23572 3.5736 0 4.2762 0.53774 1.1559 0.75873-0.8915 4.4935-0.62707 6.3719z" fill="#A0616A" fill-rule="nonzero"/>
<g fill-rule="nonzero">
<use fill="#F86D70" xlink:href="#a"/>
<use fill="#B11F35" xlink:href="#a"/>
</g>
<path d="m694.15 294.95c-0.27057-1.0217-0.22548-2.2374 0.60127-2.9235 0.41337-0.32069 0.95452-0.44002 1.398-0.7458 0.62495-0.52118 1.1364-1.1632 1.5032-1.8869 2.3159-3.2159 6.6328-4.3033 10.214-2.573 2.7132 1.4096 4.3517 4.2287 6.7643 6.1305 1.2251 0.98446 2.6456 1.7153 3.8782 2.6998 2.4686 2.116 4.2236 4.9326 5.0281 8.0696 0.79882 3.1149 1.2649 6.3047 1.3904 9.5164 0.12828 0.96392 0.090151 1.9425-0.11274 2.8937-0.24978 0.79788-0.62247 1.5526-1.1048 2.2374-2.4802 3.729-5.7497 7.1149-9.8458 9.0391-4.0962 1.9242-9.0792 2.2374-13.123 0.22374-0.4068-0.1631-0.75681-0.44044-1.0071-0.79801-0.22984-0.54451-0.28495-1.1461-0.15783-1.7228 0.21918-2.2794-0.23523-4.5729-1.3078-6.6003-0.75159-1.4916-1.879-2.7744-2.4802-4.3182-0.55911-1.728-0.79846-3.5422-0.70649-5.3549-0.067643-4.6911 0.25554-9.3673-0.93197-13.887z" fill="#2D293D" fill-rule="nonzero"/>
</g>
</svg>
